<svg width="143" height="30" viewBox="0 0 143 30" fill="none" xmlns="http://www.w3.org/2000/svg">
<path d="M8.29559 29.513C5.39826 29.513 3.32873 28.8508 2.08702 27.5263C0.857132 26.2018 0.242188 24.1559 0.242188 21.3887V18.6214H6.41528V21.158C6.41528 22.9792 6.91197 23.8898 7.90534 23.8898C8.36655 23.8898 8.72724 23.7124 8.9874 23.3577C9.2594 23.0029 9.3954 22.5358 9.3954 21.9563C9.3954 21.1994 9.28896 20.5608 9.0761 20.0405C8.87506 19.5202 8.56167 19.0294 8.13594 18.5682C7.72204 18.0952 7.03614 17.4447 6.07825 16.6169L3.43517 14.3286C1.30651 12.4956 0.242188 10.4261 0.242188 8.12005C0.242188 5.61297 0.880783 3.7504 2.15798 2.53233C3.44699 1.30244 5.21496 0.6875 7.46187 0.6875C7.521 0.6875 7.57422 0.6875 7.62152 0.6875C7.66882 0.6875 7.98221 0.6875 8.56167 0.6875C9.14114 0.6875 9.88617 0.823497 10.7968 1.09549C11.7074 1.35566 12.5174 1.79913 13.227 2.4259C13.9365 3.04084 14.4687 3.90413 14.8235 5.01576C15.1782 6.11557 15.3556 7.46371 15.3556 9.0602H9.02288L8.9874 7.35728C8.97558 7.03798 8.83958 6.75416 8.57941 6.50582C8.31924 6.25748 8.02951 6.1333 7.71021 6.1333C7.29631 6.1333 6.94153 6.26339 6.64589 6.52356C6.36207 6.7719 6.22016 7.09711 6.22016 7.49919C6.22016 8.30335 6.80553 9.17846 7.97629 10.1245L11.7547 13.1756C12.3696 13.6723 12.9018 14.1808 13.3511 14.7011C13.8124 15.2096 14.173 15.7182 14.4332 16.2267C14.7052 16.7234 14.924 17.1786 15.0895 17.5926C15.2551 17.9946 15.3675 18.4381 15.4266 18.923C15.4975 19.396 15.5389 19.7567 15.5508 20.005C15.5626 20.2415 15.5685 20.5549 15.5685 20.9452C15.5685 21.9386 15.5034 22.8432 15.3734 23.6592C15.2433 24.4634 15.0127 25.2439 14.6816 26.0007C14.3504 26.7458 13.9129 27.3725 13.3689 27.881C12.8367 28.3777 12.139 28.7739 11.2757 29.0695C10.4242 29.3652 9.43087 29.513 8.29559 29.513Z" fill="#F8817D"/>
<path d="M26.177 0.935843H32.4565L28.962 13.8674L33.1838 29.1937H26.7092L23.3033 15.4994V29.1937H17.0947V0.935843H23.2678V12.2354L26.177 0.935843Z" fill="#F8817D"/>
<path d="M33.7876 29.1937V0.935843H39.8188V29.1937H33.7876Z" fill="#F8817D"/>
<path d="M57.5051 0.935843V29.1937H51.403L48.2809 15.0559V29.1937H42.1788V0.935843H48.6002L51.4739 14.4528V0.935843H57.5051Z" fill="#F8817D"/>
<path d="M59.8651 29.1937V0.935843H68.3265C70.5379 0.935843 72.1758 1.42662 73.2401 2.40816C74.3044 3.37788 74.8366 5.03941 74.8366 7.39276C74.8366 7.46371 74.8366 7.56423 74.8366 7.69432C74.8366 8.10822 74.8366 8.41569 74.8366 8.61673C74.8366 8.81777 74.8129 9.13116 74.7656 9.55689C74.7301 9.98262 74.671 10.3197 74.5882 10.568C74.5173 10.8045 74.4049 11.1002 74.2512 11.4549C74.0975 11.8097 73.9082 12.0994 73.6836 12.3241C73.4589 12.5488 73.175 12.7676 72.8321 12.9805C72.4892 13.1933 72.093 13.353 71.6436 13.4594C72.294 13.6132 72.8498 13.8792 73.3111 14.2577C73.7723 14.6361 74.1211 15.0382 74.3576 15.4639C74.5942 15.8778 74.7775 16.3922 74.9075 17.0072C75.0494 17.6221 75.1322 18.1365 75.1559 18.5504C75.1795 18.9644 75.1914 19.461 75.1914 20.0405C75.1914 21.5306 75.0849 22.8078 74.8721 23.8721C74.671 24.9364 74.3162 25.8884 73.8077 26.728C73.2992 27.5558 72.5897 28.1767 71.6791 28.5906C70.7803 28.9927 69.6628 29.1937 68.3265 29.1937H59.8651ZM65.9672 15.9783V24.1736C66.251 24.1973 66.458 24.2091 66.5881 24.2091C68.2082 24.2091 69.0183 23.5114 69.0183 22.1159C69.0183 22.1159 69.0183 20.9393 69.0183 18.5859C69.0183 17.6872 68.8645 17.0308 68.5571 16.6169C68.2614 16.1912 67.7825 15.9783 67.1202 15.9783H65.9672ZM65.9672 11.5791H67.2444C67.5519 11.5791 67.8002 11.5141 67.9894 11.384C68.1905 11.2539 68.3324 11.0706 68.4151 10.8341C68.4979 10.5857 68.5511 10.367 68.5748 10.1777C68.5984 9.97671 68.6103 9.74019 68.6103 9.46819V6.66547C68.6103 5.7667 68.1668 5.31732 67.2799 5.31732H65.9672V11.5791Z" fill="#F8817D"/>
<path d="M76.6644 29.1937V0.935843H89.1525V6.41712H83.0149V11.9339H88.9041V17.2378H83.0149V23.677H89.5605V29.1937H76.6644Z" fill="#F8817D"/>
<path d="M98.5902 29.513C95.6929 29.513 93.6234 28.8508 92.3817 27.5263C91.1518 26.2018 90.5368 24.1559 90.5368 21.3887V18.6214H96.7099V21.158C96.7099 22.9792 97.2066 23.8898 98.2 23.8898C98.6612 23.8898 99.0219 23.7124 99.282 23.3577C99.554 23.0029 99.69 22.5358 99.69 21.9563C99.69 21.1994 99.5836 20.5608 99.3707 20.0405C99.1697 19.5202 98.8563 19.0294 98.4306 18.5682C98.0167 18.0952 97.3308 17.4447 96.3729 16.6169L93.7298 14.3286C91.6011 12.4956 90.5368 10.4261 90.5368 8.12005C90.5368 5.61297 91.1754 3.7504 92.4526 2.53233C93.7416 1.30244 95.5096 0.6875 97.7565 0.6875C97.8156 0.6875 97.8689 0.6875 97.9162 0.6875C97.9635 0.6875 98.2768 0.6875 98.8563 0.6875C99.4358 0.6875 100.181 0.823497 101.091 1.09549C102.002 1.35566 102.812 1.79913 103.522 2.4259C104.231 3.04084 104.763 3.90413 105.118 5.01576C105.473 6.11557 105.65 7.46371 105.65 9.0602H99.3175L99.282 7.35728C99.2702 7.03798 99.1342 6.75416 98.874 6.50582C98.6139 6.25748 98.3241 6.1333 98.0048 6.1333C97.5909 6.1333 97.2362 6.26339 96.9405 6.52356C96.6567 6.7719 96.5148 7.09711 96.5148 7.49919C96.5148 8.30335 97.1002 9.17846 98.2709 10.1245L102.049 13.1756C102.664 13.6723 103.196 14.1808 103.646 14.7011C104.107 15.2096 104.468 15.7182 104.728 16.2267C105 16.7234 105.219 17.1786 105.384 17.5926C105.55 17.9946 105.662 18.4381 105.721 18.923C105.792 19.396 105.834 19.7567 105.845 20.005C105.857 20.2415 105.863 20.5549 105.863 20.9452C105.863 21.9386 105.798 22.8432 105.668 23.6592C105.538 24.4634 105.307 25.2439 104.976 26.0007C104.645 26.7458 104.208 27.3725 103.664 27.881C103.131 28.3777 102.434 28.7739 101.57 29.0695C100.719 29.3652 99.7255 29.513 98.5902 29.513Z" fill="#F8817D"/>
<path d="M106.201 0.935843H119.86V6.38165H116.152V29.1937H109.908V6.38165H106.201V0.935843Z" fill="#F8817D"/>
<path d="M121.067 29.1937V0.935843H127.098V29.1937H121.067Z" fill="#F8817D"/>
<path d="M129.458 29.1937V0.935843H141.946V6.41712H135.808V11.9339H141.698V17.2378H135.808V23.677H142.354V29.1937H129.458Z" fill="#F8817D"/>
</svg>
